<svg width="50" height="50" viewBox="0 0 50 50" fill="none" xmlns="http://www.w3.org/2000/svg">
  <path
    d="M14.5001 14.5C21.6478 6.53411 46 4 46 4C46 4 43.7842 27.5796 35.5001 35.5C27.9438 42.7246 4 46 4 46C4 46 7.51821 22.2811 14.5001 14.5Z"
    fill="url(#paint0_radial_27_197)" />
  <path
    d="M6.43156 43.5934C6.49025 43.2665 6.55462 42.9146 6.62468 42.5403C7.05824 40.2237 7.70745 37.059 8.57035 33.6601C9.43472 30.2552 10.5049 26.6499 11.7739 23.4398C13.0578 20.1923 14.4821 17.5147 15.9887 15.8357C17.4758 14.1784 20.0073 12.6661 23.2008 11.3474C26.352 10.0461 29.9521 9.01159 33.385 8.21047C36.8101 7.41116 40.023 6.85463 42.3823 6.49795C42.8641 6.4251 43.3098 6.36067 43.7138 6.30428C43.6644 6.67622 43.6082 7.08359 43.5449 7.52215C43.2132 9.8184 42.6867 12.9562 41.9078 16.33C41.1274 19.7105 40.1031 23.2859 38.787 26.4734C37.4583 29.6911 35.8962 32.3543 34.118 34.0545C32.5079 35.5939 29.8794 37.0388 26.6476 38.3316C23.4559 39.6084 19.8502 40.6695 16.4342 41.5183C13.0246 42.3654 9.84172 42.9916 7.50931 43.4062C7.12583 43.4744 6.76565 43.5367 6.43156 43.5934Z"
    stroke="black" stroke-opacity="0.4" stroke-width="4" />
  <defs>
    <radialGradient id="paint0_radial_27_197" cx="0" cy="0" r="1" gradientUnits="userSpaceOnUse"
      gradientTransform="translate(46 4) rotate(135) scale(59.397)">
      <stop stop-color="#DF2086" />
      <stop offset="1" stop-color="#9F20DF" />
    </radialGradient>
  </defs>
</svg>